<mxfile host="Electron" agent="Mozilla/5.0 (X11; Linux x86_64) AppleWebKit/537.36 (KHTML, like Gecko) draw.io/27.0.9 Chrome/134.0.6998.205 Electron/35.4.0 Safari/537.36" version="27.0.9">
  <diagram name="Page-1" id="zF-ldZ9x6v1s6mkZ4p7j">
    <mxGraphModel dx="2449" dy="1135" grid="1" gridSize="10" guides="1" tooltips="1" connect="1" arrows="1" fold="1" page="1" pageScale="1" pageWidth="850" pageHeight="1100" math="0" shadow="0">
      <root>
        <mxCell id="0" />
        <mxCell id="1" parent="0" />
        <mxCell id="d7LsyDqIq83URUzEJ0gu-2" value="Q1" style="shape=step;perimeter=stepPerimeter;whiteSpace=wrap;html=1;fixedSize=1;size=10;fillColor=#f5f5f5;strokeColor=#666666;fontSize=18;fontStyle=1;align=center;rounded=0;fontColor=#333333;" parent="1" vertex="1">
          <mxGeometry x="250" y="40" width="780" height="74.4" as="geometry" />
        </mxCell>
        <mxCell id="d7LsyDqIq83URUzEJ0gu-8" value="Q2" style="shape=step;perimeter=stepPerimeter;whiteSpace=wrap;html=1;fixedSize=1;size=10;fillColor=#f5f5f5;strokeColor=#666666;fontSize=18;fontStyle=1;align=center;rounded=0;fontColor=#333333;" parent="1" vertex="1">
          <mxGeometry x="1030" y="40" width="780" height="74.4" as="geometry" />
        </mxCell>
        <mxCell id="d7LsyDqIq83URUzEJ0gu-9" value="Q3" style="shape=step;perimeter=stepPerimeter;whiteSpace=wrap;html=1;fixedSize=1;size=10;fillColor=#f5f5f5;strokeColor=#666666;fontSize=18;fontStyle=1;align=center;rounded=0;fontColor=#333333;" parent="1" vertex="1">
          <mxGeometry x="1810" y="40" width="780" height="74.4" as="geometry" />
        </mxCell>
        <mxCell id="d7LsyDqIq83URUzEJ0gu-10" value="Q4" style="shape=step;perimeter=stepPerimeter;whiteSpace=wrap;html=1;fixedSize=1;size=10;fillColor=#f5f5f5;strokeColor=#666666;fontSize=18;fontStyle=1;align=center;rounded=0;fontColor=#333333;" parent="1" vertex="1">
          <mxGeometry x="2590" y="40" width="780" height="74.4" as="geometry" />
        </mxCell>
        <mxCell id="d7LsyDqIq83URUzEJ0gu-11" value="&lt;b&gt;Клинический домен&lt;/b&gt;" style="rounded=0;whiteSpace=wrap;html=1;fillColor=#f5f5f5;fontColor=#333333;strokeColor=#666666;fontSize=18;" parent="1" vertex="1">
          <mxGeometry x="70" y="380" width="180" height="245.6" as="geometry" />
        </mxCell>
        <mxCell id="d7LsyDqIq83URUzEJ0gu-12" value="&lt;b&gt;Финансовый домен&lt;/b&gt;" style="rounded=0;whiteSpace=wrap;html=1;fillColor=#f5f5f5;fontColor=#333333;strokeColor=#666666;fontSize=18;" parent="1" vertex="1">
          <mxGeometry x="70" y="640" width="180" height="245.6" as="geometry" />
        </mxCell>
        <mxCell id="d7LsyDqIq83URUzEJ0gu-13" value="&lt;table&gt;&lt;tbody&gt;&lt;tr&gt;&lt;td data-col-size=&quot;sm&quot; data-end=&quot;685&quot; data-start=&quot;642&quot;&gt;&lt;strong data-end=&quot;667&quot; data-start=&quot;644&quot;&gt;&lt;/strong&gt;&lt;/td&gt;&lt;/tr&gt;&lt;/tbody&gt;&lt;/table&gt;&lt;table&gt;&lt;tbody&gt;&lt;tr&gt;&lt;td data-col-size=&quot;sm&quot; data-end=&quot;721&quot; data-start=&quot;685&quot;&gt;&lt;strong data-end=&quot;704&quot; data-start=&quot;687&quot;&gt;ИИ-интеграция&lt;/strong&gt;&lt;/td&gt;&lt;/tr&gt;&lt;/tbody&gt;&lt;/table&gt;" style="rounded=0;whiteSpace=wrap;html=1;fillColor=#f5f5f5;fontColor=#333333;strokeColor=#666666;fontSize=18;" parent="1" vertex="1">
          <mxGeometry x="70" y="900" width="180" height="245.6" as="geometry" />
        </mxCell>
        <mxCell id="d7LsyDqIq83URUzEJ0gu-14" value="&lt;table&gt;&lt;tbody&gt;&lt;tr&gt;&lt;td data-col-size=&quot;sm&quot; data-end=&quot;445&quot; data-start=&quot;402&quot;&gt;&lt;strong data-end=&quot;430&quot; data-start=&quot;404&quot;&gt;&lt;/strong&gt;&lt;/td&gt;&lt;/tr&gt;&lt;/tbody&gt;&lt;/table&gt;&lt;table&gt;&lt;tbody&gt;&lt;tr&gt;&lt;td data-col-size=&quot;sm&quot; data-end=&quot;481&quot; data-start=&quot;445&quot;&gt;&lt;strong data-end=&quot;472&quot; data-start=&quot;447&quot;&gt;BI и самообслуживание&lt;/strong&gt;&lt;/td&gt;&lt;/tr&gt;&lt;/tbody&gt;&lt;/table&gt;" style="rounded=0;whiteSpace=wrap;html=1;fillColor=#f5f5f5;fontColor=#333333;strokeColor=#666666;fontSize=18;" parent="1" vertex="1">
          <mxGeometry x="70" y="1170" width="180" height="245.6" as="geometry" />
        </mxCell>
        <mxCell id="d7LsyDqIq83URUzEJ0gu-15" value="&lt;table&gt;&lt;tbody&gt;&lt;tr&gt;&lt;td data-col-size=&quot;sm&quot; data-end=&quot;445&quot; data-start=&quot;402&quot;&gt;&lt;strong data-end=&quot;430&quot; data-start=&quot;404&quot;&gt;&lt;/strong&gt;&lt;/td&gt;&lt;/tr&gt;&lt;/tbody&gt;&lt;/table&gt;&lt;table&gt;&lt;tbody&gt;&lt;tr&gt;&lt;td data-col-size=&quot;sm&quot; data-end=&quot;481&quot; data-start=&quot;445&quot;&gt;&lt;table&gt;&lt;tbody&gt;&lt;tr&gt;&lt;td data-col-size=&quot;sm&quot; data-end=&quot;365&quot; data-start=&quot;322&quot;&gt;&lt;strong data-end=&quot;346&quot; data-start=&quot;324&quot;&gt;&lt;/strong&gt;&lt;/td&gt;&lt;/tr&gt;&lt;/tbody&gt;&lt;/table&gt;&lt;table&gt;&lt;tbody&gt;&lt;tr&gt;&lt;td data-end=&quot;401&quot; data-start=&quot;365&quot; data-col-size=&quot;sm&quot;&gt;&lt;strong data-end=&quot;387&quot; data-start=&quot;367&quot;&gt;Платформа данных&lt;/strong&gt;&lt;/td&gt;&lt;/tr&gt;&lt;/tbody&gt;&lt;/table&gt;&lt;/td&gt;&lt;/tr&gt;&lt;/tbody&gt;&lt;/table&gt;" style="rounded=0;whiteSpace=wrap;html=1;fillColor=#f5f5f5;fontColor=#333333;strokeColor=#666666;fontSize=18;" parent="1" vertex="1">
          <mxGeometry x="70" y="120" width="180" height="245.6" as="geometry" />
        </mxCell>
        <mxCell id="d7LsyDqIq83URUzEJ0gu-16" value="" style="shape=rect;fillColor=#fff2cc;strokeColor=none;fontSize=24;html=1;whiteSpace=wrap;align=left;verticalAlign=top;spacing=5;rounded=0;" parent="1" vertex="1">
          <mxGeometry x="260" y="130" width="3110" height="240" as="geometry" />
        </mxCell>
        <mxCell id="d7LsyDqIq83URUzEJ0gu-17" value="" style="shape=rect;fillColor=#fff2cc;strokeColor=none;fontSize=24;html=1;whiteSpace=wrap;align=left;verticalAlign=top;spacing=5;rounded=0;" parent="1" vertex="1">
          <mxGeometry x="260" y="382.8" width="3110" height="240" as="geometry" />
        </mxCell>
        <mxCell id="d7LsyDqIq83URUzEJ0gu-18" value="" style="shape=rect;fillColor=#fff2cc;strokeColor=none;fontSize=24;html=1;whiteSpace=wrap;align=left;verticalAlign=top;spacing=5;rounded=0;" parent="1" vertex="1">
          <mxGeometry x="260" y="645.6" width="3110" height="240" as="geometry" />
        </mxCell>
        <mxCell id="d7LsyDqIq83URUzEJ0gu-19" value="" style="shape=rect;fillColor=#fff2cc;strokeColor=none;fontSize=24;html=1;whiteSpace=wrap;align=left;verticalAlign=top;spacing=5;rounded=0;" parent="1" vertex="1">
          <mxGeometry x="260" y="902.8" width="3110" height="240" as="geometry" />
        </mxCell>
        <mxCell id="d7LsyDqIq83URUzEJ0gu-20" value="" style="shape=rect;fillColor=#fff2cc;strokeColor=none;fontSize=24;html=1;whiteSpace=wrap;align=left;verticalAlign=top;spacing=5;rounded=0;" parent="1" vertex="1">
          <mxGeometry x="260" y="1170" width="3110" height="240" as="geometry" />
        </mxCell>
        <mxCell id="d7LsyDqIq83URUzEJ0gu-21" value="Т1 - Спроектировать и развернуть базовую инфраструктуру Data Lake и оркестрации (S3/ADLS, Airflow, dbt)" style="shape=rect;fillColor=#ffe6cc;strokeColor=#d79b00;fontSize=18;html=1;whiteSpace=wrap;align=left;verticalAlign=top;spacing=5;rounded=0;" parent="1" vertex="1">
          <mxGeometry x="265" y="150" width="515" height="60" as="geometry" />
        </mxCell>
        <mxCell id="d7LsyDqIq83URUzEJ0gu-22" value="&lt;table&gt;&lt;tbody&gt;&lt;tr&gt;&lt;td data-col-size=&quot;sm&quot; data-end=&quot;1386&quot; data-start=&quot;1377&quot;&gt;&lt;/td&gt;&lt;/tr&gt;&lt;/tbody&gt;&lt;/table&gt;&lt;table&gt;&lt;tbody&gt;&lt;tr&gt;&lt;td data-end=&quot;1472&quot; data-start=&quot;1386&quot; data-col-size=&quot;lg&quot;&gt;Т6 - Провести инвентаризацию источников и данных, определить ключевые события и таблицы&lt;/td&gt;&lt;/tr&gt;&lt;/tbody&gt;&lt;/table&gt;" style="shape=rect;fillColor=#ffe6cc;strokeColor=#d79b00;fontSize=18;html=1;whiteSpace=wrap;align=left;verticalAlign=top;spacing=5;rounded=0;" parent="1" vertex="1">
          <mxGeometry x="270" y="400" width="750" height="60" as="geometry" />
        </mxCell>
        <mxCell id="d7LsyDqIq83URUzEJ0gu-25" value="Т2- Настроить пайплайны загрузки данных из клинического и финансового доменов в Data Lake и DWH" style="shape=rect;fillColor=#ffe6cc;strokeColor=#d79b00;fontSize=18;html=1;whiteSpace=wrap;align=left;verticalAlign=top;spacing=5;rounded=0;" parent="1" vertex="1">
          <mxGeometry x="780" y="220" width="750" height="60" as="geometry" />
        </mxCell>
        <mxCell id="d7LsyDqIq83URUzEJ0gu-26" value="Т3 - Построить витрины данных в DWH, подключить BI-инструменты, внедрить управление доступом (RBAC)" style="shape=rect;fillColor=#ffe6cc;strokeColor=#d79b00;fontSize=18;html=1;whiteSpace=wrap;align=left;verticalAlign=top;spacing=5;rounded=0;" parent="1" vertex="1">
          <mxGeometry x="1530" y="290" width="750" height="60" as="geometry" />
        </mxCell>
        <mxCell id="d7LsyDqIq83URUzEJ0gu-27" value="Т4 - Интегрировать enrich-данные от ИИ и события из Kafka в пайплайны обработки" style="shape=rect;fillColor=#ffe6cc;strokeColor=#d79b00;fontSize=18;html=1;whiteSpace=wrap;align=left;verticalAlign=top;spacing=5;rounded=0;" parent="1" vertex="1">
          <mxGeometry x="2280" y="180" width="570" height="80" as="geometry" />
        </mxCell>
        <mxCell id="d7LsyDqIq83URUzEJ0gu-29" value="Т5-Завершить миграцию логики из SQL Server, перевести легаси-хранилище в read-only, стабилизировать платформу" style="shape=rect;fillColor=#ffe6cc;strokeColor=#d79b00;fontSize=18;html=1;whiteSpace=wrap;align=left;verticalAlign=top;spacing=5;rounded=0;" parent="1" vertex="1">
          <mxGeometry x="2870" y="257.2" width="480" height="92.8" as="geometry" />
        </mxCell>
        <mxCell id="d7LsyDqIq83URUzEJ0gu-30" value="&lt;table&gt;&lt;tbody&gt;&lt;tr&gt;&lt;td data-col-size=&quot;sm&quot; data-end=&quot;884&quot; data-start=&quot;875&quot;&gt;&lt;/td&gt;&lt;/tr&gt;&lt;/tbody&gt;&lt;/table&gt;&lt;table&gt;&lt;tbody&gt;&lt;tr&gt;&lt;td data-col-size=&quot;lg&quot; data-end=&quot;980&quot; data-start=&quot;884&quot;&gt;Т18 - Разработать архитектуру и UX для портала BI и витрины данных, провести аудит текущих отчётов&lt;/td&gt;&lt;/tr&gt;&lt;/tbody&gt;&lt;/table&gt;" style="shape=rect;fillColor=#ffe6cc;strokeColor=#d79b00;fontSize=18;html=1;whiteSpace=wrap;align=left;verticalAlign=top;spacing=5;rounded=0;" parent="1" vertex="1">
          <mxGeometry x="265" y="1180" width="425" height="90" as="geometry" />
        </mxCell>
        <mxCell id="d7LsyDqIq83URUzEJ0gu-31" value="&lt;table&gt;&lt;tbody&gt;&lt;tr&gt;&lt;td data-col-size=&quot;sm&quot; data-end=&quot;1197&quot; data-start=&quot;1188&quot;&gt;&lt;/td&gt;&lt;/tr&gt;&lt;/tbody&gt;&lt;/table&gt;&lt;table&gt;&lt;tbody&gt;&lt;tr&gt;&lt;td data-end=&quot;1305&quot; data-start=&quot;1197&quot; data-col-size=&quot;lg&quot;&gt;Т21 - Развернуть Self-Service BI, обеспечить поддержку пользователей, сформировать стандарты и шаблоны отчётов&lt;/td&gt;&lt;/tr&gt;&lt;/tbody&gt;&lt;/table&gt;" style="shape=rect;fillColor=#ffe6cc;strokeColor=#d79b00;fontSize=18;html=1;whiteSpace=wrap;align=left;verticalAlign=top;spacing=5;rounded=0;" parent="1" vertex="1">
          <mxGeometry x="2240" y="1230" width="1120" height="60" as="geometry" />
        </mxCell>
        <mxCell id="d7LsyDqIq83URUzEJ0gu-32" value="&lt;table&gt;&lt;tbody&gt;&lt;tr&gt;&lt;td data-col-size=&quot;sm&quot; data-end=&quot;990&quot; data-start=&quot;981&quot;&gt;&lt;/td&gt;&lt;/tr&gt;&lt;/tbody&gt;&lt;/table&gt;&lt;table&gt;&lt;tbody&gt;&lt;tr&gt;&lt;td data-col-size=&quot;lg&quot; data-end=&quot;1084&quot; data-start=&quot;990&quot;&gt;Т19 - Реализовать MVP витрины с подключением к новым витринам DWH и внедрением Power BI Embedded&lt;/td&gt;&lt;/tr&gt;&lt;/tbody&gt;&lt;/table&gt;" style="shape=rect;fillColor=#ffe6cc;strokeColor=#d79b00;fontSize=18;html=1;whiteSpace=wrap;align=left;verticalAlign=top;spacing=5;rounded=0;" parent="1" vertex="1">
          <mxGeometry x="690" y="1250" width="780" height="60" as="geometry" />
        </mxCell>
        <mxCell id="d7LsyDqIq83URUzEJ0gu-33" value="Т20 - Внедрить каталог данных (DataHub), настроить роли доступа, обучить ключевых пользователей" style="shape=rect;fillColor=#ffe6cc;strokeColor=#d79b00;fontSize=18;html=1;whiteSpace=wrap;align=left;verticalAlign=top;spacing=5;rounded=0;" parent="1" vertex="1">
          <mxGeometry x="1470" y="1320" width="760" height="60" as="geometry" />
        </mxCell>
        <mxCell id="d7LsyDqIq83URUzEJ0gu-34" value="&lt;table&gt;&lt;tbody&gt;&lt;tr&gt;&lt;td data-col-size=&quot;sm&quot; data-end=&quot;2376&quot; data-start=&quot;2367&quot;&gt;&lt;/td&gt;&lt;/tr&gt;&lt;/tbody&gt;&lt;/table&gt;&lt;table&gt;&lt;tbody&gt;&lt;tr&gt;&lt;td data-end=&quot;2458&quot; data-start=&quot;2376&quot; data-col-size=&quot;lg&quot;&gt;Т14 - Описать интерфейсы взаимодействия, определить форматы данных и входные события&lt;/td&gt;&lt;/tr&gt;&lt;/tbody&gt;&lt;/table&gt;" style="shape=rect;fillColor=#ffe6cc;strokeColor=#d79b00;fontSize=18;html=1;whiteSpace=wrap;align=left;verticalAlign=top;spacing=5;rounded=0;" parent="1" vertex="1">
          <mxGeometry x="265" y="910" width="425" height="100" as="geometry" />
        </mxCell>
        <mxCell id="d7LsyDqIq83URUzEJ0gu-35" value="Т15 - Настроить приём данных из Data Lake, реализовать передачу предсказаний обратно в платформу" style="shape=rect;fillColor=#ffe6cc;strokeColor=#d79b00;fontSize=18;html=1;whiteSpace=wrap;align=left;verticalAlign=top;spacing=5;rounded=0;" parent="1" vertex="1">
          <mxGeometry x="690" y="1020" width="780" height="60" as="geometry" />
        </mxCell>
        <mxCell id="d7LsyDqIq83URUzEJ0gu-36" value="Т16 - Подключить результаты ИИ в витрины и BI, внедрить версионирование и мониторинг моделей" style="shape=rect;fillColor=#ffe6cc;strokeColor=#d79b00;fontSize=18;html=1;whiteSpace=wrap;align=left;verticalAlign=top;spacing=5;rounded=0;" parent="1" vertex="1">
          <mxGeometry x="1470" y="1070" width="760" height="60" as="geometry" />
        </mxCell>
        <mxCell id="d7LsyDqIq83URUzEJ0gu-37" value="&lt;table&gt;&lt;tbody&gt;&lt;tr&gt;&lt;td data-col-size=&quot;sm&quot; data-end=&quot;2672&quot; data-start=&quot;2663&quot;&gt;&lt;/td&gt;&lt;/tr&gt;&lt;/tbody&gt;&lt;/table&gt;&lt;table&gt;&lt;tbody&gt;&lt;tr&gt;&lt;td data-col-size=&quot;lg&quot; data-end=&quot;2783&quot; data-start=&quot;2672&quot;&gt;Т17 - Автоматизировать обучение моделей, внедрить CI/CD, стабилизировать API, зафиксировать формат взаимодействия&lt;/td&gt;&lt;/tr&gt;&lt;/tbody&gt;&lt;/table&gt;" style="shape=rect;fillColor=#ffe6cc;strokeColor=#d79b00;fontSize=18;html=1;whiteSpace=wrap;align=left;verticalAlign=top;spacing=5;rounded=0;" parent="1" vertex="1">
          <mxGeometry x="2240" y="960" width="1120" height="60" as="geometry" />
        </mxCell>
        <mxCell id="d7LsyDqIq83URUzEJ0gu-38" value="Т10 - Проанализировать текущую интеграцию, описать модели данных и транзакционные потоки" style="shape=rect;fillColor=#ffe6cc;strokeColor=#d79b00;fontSize=18;html=1;whiteSpace=wrap;align=left;verticalAlign=top;spacing=5;rounded=0;" parent="1" vertex="1">
          <mxGeometry x="270" y="650" width="425" height="80" as="geometry" />
        </mxCell>
        <mxCell id="d7LsyDqIq83URUzEJ0gu-39" value="Т11 - Настроить стриминговую передачу данных через Kafka, реализовать витрины по счетам, платежам, кредитам" style="shape=rect;fillColor=#ffe6cc;strokeColor=#d79b00;fontSize=18;html=1;whiteSpace=wrap;align=left;verticalAlign=top;spacing=5;rounded=0;" parent="1" vertex="1">
          <mxGeometry x="690" y="735.6" width="780" height="60" as="geometry" />
        </mxCell>
        <mxCell id="d7LsyDqIq83URUzEJ0gu-40" value="Т12 - Подключить BI, реализовать отчёты по рискам, просрочкам, интегрировать enrich-информацию" style="shape=rect;fillColor=#ffe6cc;strokeColor=#d79b00;fontSize=18;html=1;whiteSpace=wrap;align=left;verticalAlign=top;spacing=5;rounded=0;" parent="1" vertex="1">
          <mxGeometry x="1470" y="810" width="1120" height="60" as="geometry" />
        </mxCell>
        <mxCell id="d7LsyDqIq83URUzEJ0gu-41" value="&lt;table&gt;&lt;tbody&gt;&lt;tr&gt;&lt;td data-col-size=&quot;sm&quot; data-end=&quot;2191&quot; data-start=&quot;2182&quot;&gt;&lt;/td&gt;&lt;/tr&gt;&lt;/tbody&gt;&lt;/table&gt;&lt;table&gt;&lt;tbody&gt;&lt;tr&gt;&lt;td data-col-size=&quot;lg&quot; data-end=&quot;2299&quot; data-start=&quot;2191&quot;&gt;Т13 - Завершить миграцию логики из Camel, стандартизировать API и схемы, закрыть старые каналы передачи данных&lt;/td&gt;&lt;/tr&gt;&lt;/tbody&gt;&lt;/table&gt;" style="shape=rect;fillColor=#ffe6cc;strokeColor=#d79b00;fontSize=18;html=1;whiteSpace=wrap;align=left;verticalAlign=top;spacing=5;rounded=0;" parent="1" vertex="1">
          <mxGeometry x="2590" y="700" width="770" height="70" as="geometry" />
        </mxCell>
        <mxCell id="d7LsyDqIq83URUzEJ0gu-42" value="Т7 - Настроить потоки передачи данных в платформу, реализовать витрины по пациентам, расписанию, персоналу" style="shape=rect;fillColor=#ffe6cc;strokeColor=#d79b00;fontSize=18;html=1;whiteSpace=wrap;align=left;verticalAlign=top;spacing=5;rounded=0;" parent="1" vertex="1">
          <mxGeometry x="1020" y="490" width="780" height="60" as="geometry" />
        </mxCell>
        <mxCell id="d7LsyDqIq83URUzEJ0gu-43" value="Т9 - Вывести аналитику из PowerBuilder, внедрить витрины полностью в BI, отказаться от легаси-интерфейсов" style="shape=rect;fillColor=#ffe6cc;strokeColor=#d79b00;fontSize=18;html=1;whiteSpace=wrap;align=left;verticalAlign=top;spacing=5;rounded=0;" parent="1" vertex="1">
          <mxGeometry x="2580" y="510" width="750" height="60" as="geometry" />
        </mxCell>
        <mxCell id="d7LsyDqIq83URUzEJ0gu-44" value="Т8 - Сформировать дашборды по операционной деятельности, интегрировать enrich-слой от ИИ" style="shape=rect;fillColor=#ffe6cc;strokeColor=#d79b00;fontSize=18;html=1;whiteSpace=wrap;align=left;verticalAlign=top;spacing=5;rounded=0;" parent="1" vertex="1">
          <mxGeometry x="1800" y="400" width="750" height="60" as="geometry" />
        </mxCell>
        <mxCell id="d7LsyDqIq83URUzEJ0gu-45" value="&lt;font style=&quot;font-size: 21px;&quot;&gt;&lt;strong style=&quot;&quot; data-end=&quot;2860&quot; data-start=&quot;2840&quot;&gt;через 2–3 месяца&lt;/strong&gt; — чёткие границы доменов и MVP по витринам,&lt;br data-end=&quot;2907&quot; data-start=&quot;2904&quot;&gt;&lt;br/&gt;&lt;strong style=&quot;&quot; data-end=&quot;2927&quot; data-start=&quot;2907&quot;&gt;через 12 месяцев&lt;/strong&gt; — полноценный self-service-портал и рабочие пайплайны по всем доменам.&lt;/font&gt;" style="text;html=1;align=left;verticalAlign=middle;resizable=0;points=[];autosize=1;strokeColor=none;fillColor=none;" parent="1" vertex="1">
          <mxGeometry x="70" y="1480" width="960" height="90" as="geometry" />
        </mxCell>
      </root>
    </mxGraphModel>
  </diagram>
</mxfile>
